<?xml version="1.0" encoding="utf-8"?>
<!-- Generator: Adobe Illustrator 19.0.0, SVG Export Plug-In . SVG Version: 6.00 Build 0)  -->
<svg version="1.1" id="Layer_1" xmlns="http://www.w3.org/2000/svg" xmlns:xlink="http://www.w3.org/1999/xlink" x="0px" y="0px"
	 viewBox="0 0 500 500" style="enable-background:new 0 0 500 500;" xml:space="preserve">
<style type="text/css">
	.st0-couch{fill:#FF0000;}
	.st1-couch{fill:#EB1019;}
	.st2-couch{fill:#FFFFFF;}
	.st3-couch{fill:#BD101D;}
</style>
<g id="XMLID_1_">
	<polygon id="XMLID_3_" class="st0" points="402.7,185.7 402.7,122.1 97.7,122.1 97.7,185.7 73.9,185.7 73.9,316.1 426.1,316.1 
		426.1,185.7 	"/>
	<path id="XMLID_6_" class="st1" d="M67.5,318.9V179.4h23.9v-63.6h317.7v63.6h23.4v139.6H67.5z M77.5,313.9l343.8,0.3l-1.5-122.1
		h-23.4v-63.7H104.1v63.7H80.2l-2.3,117.8L77.5,313.9z"/>
	<polygon id="XMLID_7_" class="st2" points="113.6,115.2 113.6,143.9 124.5,158.6 156.4,147.7 156.3,104.4 	"/>
	<polygon id="XMLID_8_" class="st3" points="120.2,261.5 192.4,277.8 379.9,260.3 380,317.2 120.1,317.2 	"/>
	<polygon id="XMLID_9_" class="st3" points="120.2,261.5 120.1,262.2 192.3,278.5 379.2,261.1 379.2,316.5 120.8,316.5 121,261.5 
		120.2,261.5 120.1,262.2 120.2,261.5 119.5,261.5 119.4,317.9 380.7,317.9 380.6,259.5 192.4,277.1 119.5,260.6 119.5,261.5 	"/>
	<polygon id="XMLID_10_" class="st3" points="334.9,221.1 315.3,213 274.5,185.2 225.8,200 120.2,192 120.2,229.5 187.2,248.7 
		378.5,231.7 378.5,192.6 	"/>
	<polygon id="XMLID_11_" class="st3" points="334.9,221.1 335.1,220.5 315.6,212.4 274.6,184.4 225.7,199.3 119.5,191.2 119.5,230 
		187.1,249.4 379.2,232.3 379.2,191.3 334.5,220.5 334.9,221.1 335.1,220.5 334.9,221.1 335.3,221.7 377.8,193.9 377.8,231 
		187.2,247.9 120.9,228.9 120.9,192.8 225.9,200.7 274.4,186 314.9,213.6 334.9,221.9 335.3,221.7 	"/>
	<polygon id="XMLID_12_" class="st2" points="91.3,167.1 79.3,179.9 79.3,214.1 96.3,221.4 96.3,201.6 103.6,207.3 103.6,193.8 
		120.2,193.8 151,240.1 162.3,243.2 177.7,307.1 185.7,310.4 191.4,333.8 236,333.8 214.6,245.2 275.2,205.8 308.1,233.7 
		316.1,230.5 319.2,238.8 378.5,233.5 373.3,220.3 340,212.2 279.5,162.9 213.7,187.9 193.4,161.3 223.9,130.3 253,130.3 
		264.4,139.9 264.4,130.3 287.3,130.3 281.8,117.5 214.9,106.9 153.1,146.4 	"/>
	<path id="XMLID_13_" d="M120.4,392.7c-2.7,1.4-8.6,2.9-16.2,2.9c-19.9,0-32-12.5-32-31.6c0-20.6,14.3-33.1,33.4-33.1
		c7.5,0,12.9,1.6,15.2,2.8l-2.5,9.1c-3-1.3-7.1-2.4-12.3-2.4c-12.7,0-21.9,8-21.9,23c0,13.7,8.1,22.6,21.8,22.6
		c4.6,0,9.5-0.9,12.4-2.3L120.4,392.7z"/>
	<path id="XMLID_16_" d="M169.7,371.5c0,16.6-11.7,24.1-23.2,24.1c-12.8,0-22.7-8.8-22.7-23.3c0-14.9,9.8-24,23.4-24
		C160.7,348.3,169.7,357.8,169.7,371.5z M135.7,372c0,8.7,4.3,15.3,11.2,15.3c6.5,0,11.1-6.4,11.1-15.5c0-7.1-3.2-15.1-11-15.1
		C138.9,356.7,135.7,364.5,135.7,372z"/>
	<path id="XMLID_17_" d="M218.1,381c0,5.4,0.2,9.8,0.4,13.6h-10l-0.6-6.9h-0.2c-1.9,3.3-6.4,7.9-14.5,7.9c-8.3,0-15.8-4.9-15.8-19.7
		v-26.6h11.4v24.6c0,7.5,2.4,12.4,8.5,12.4c4.6,0,7.5-3.3,8.7-6.1c0.4-1,0.7-2.2,0.7-3.5v-27.3h11.4L218.1,381L218.1,381z"/>
	<path id="XMLID_18_" d="M262,393.2c-2.4,1.1-7.2,2.4-12.8,2.4c-14.1,0-23.3-9.1-23.3-23.1c0-13.6,9.3-24.2,25.2-24.2
		c4.2,0,8.5,0.9,11.1,2.1l-2,8.5c-1.9-0.8-4.6-1.8-8.6-1.8c-8.7,0-13.9,6.4-13.8,14.7c0,9.3,6,14.6,13.8,14.6c4,0,6.8-0.8,9-1.8
		L262,393.2z"/>
	<path id="XMLID_19_" d="M268.6,328.6h11.5v26.9h0.2c1.4-2.1,3.3-4,5.7-5.2c2.2-1.3,4.9-2,7.8-2c7.7,0,15.8,5.1,15.8,19.6v26.7
		h-11.4v-25.4c0-6.6-2.4-11.5-8.7-11.5c-4.5,0-7.6,3-8.8,6.4c-0.4,0.9-0.5,2.1-0.5,3.4v27h-11.5V328.6z"/>
	<path id="XMLID_22_" d="M320.5,332.8c5-0.8,11.4-1.3,18.2-1.3c11.7,0,19.8,2.4,25.5,7.2c6,4.9,9.8,12.4,9.8,23
		c0,11.1-3.8,19.5-9.8,24.9c-6.2,5.7-16.2,8.5-28.3,8.5c-6.7,0-11.7-0.4-15.4-0.8V332.8z M332,385.8c1.6,0.3,4,0.3,6.3,0.3
		c14.9,0.1,23.7-8.1,23.7-24c0.1-13.8-7.9-21.7-22.2-21.7c-3.6,0-6.2,0.3-7.8,0.7V385.8z"/>
	<path id="XMLID_26_" d="M382.7,332.8c3.6-0.7,10.2-1.3,16.6-1.3c8.5,0,13.7,1,17.9,4c3.9,2.3,6.5,6.4,6.5,11.7
		c0,5.8-3.6,11.1-10.4,13.6v0.2c6.6,1.7,12.6,6.9,12.6,15.5c0,5.6-2.4,9.9-6,12.9c-4.5,3.9-11.8,5.9-23.2,5.9
		c-6.3,0-11.1-0.5-14-0.8V332.8z M394,357.5h5.9c7.9,0,12.4-3.7,12.4-9c0-5.9-4.5-8.5-11.7-8.5c-3.3,0-5.3,0.2-6.5,0.5L394,357.5
		L394,357.5z M394,386.3c1.5,0.3,3.4,0.3,6,0.3c7.3,0,13.8-2.8,13.8-10.5c0-7.2-6.3-10.2-14.2-10.2H394V386.3z"/>
</g>
</svg>
