<?xml version="1.0" encoding="utf-8"?>
<!-- Generator: Adobe Illustrator 19.0.0, SVG Export Plug-In . SVG Version: 6.00 Build 0)  -->
<svg version="1.1" id="Layer_1" xmlns="http://www.w3.org/2000/svg" xmlns:xlink="http://www.w3.org/1999/xlink" x="0px" y="0px" height="10em" width="10em"
	 viewBox="0 0 500 500" style="enable-background:new 0 0 500 500;" >
<style type="text/css">
	.st0{fill:#1F70C1;}
</style>
<path class="st0" d="M70,178v9.9h70.1V178H70z M150,178v9.9h99.9c0,0-10.2-9.9-23.7-9.9H150z M269.4,178v9.9h60.4l-3.6-9.9H269.4z
	 M373.2,178l-3.6,9.9h59.9V178H373.2z M70,197.2v9.9h70.1v-9.9H70z M150,197.2v9.8h111.4c0,0-1.3-7.6-3.6-9.8H150z M269.4,197.2v9.8
	h67l-3.3-9.8H269.4z M366,197.2l-3.3,9.8h66.8v-9.8H366z M90.1,216.3v9.9h30.3v-9.9H90.1z M170.1,216.3v9.9h30.3v-9.9H170.1z
	 M230,216.3v9.9h30.3c0,0,1.9-5.2,1.9-9.9H230z M289.6,216.3v9.9h53.8l-3.6-9.9H289.6z M359.4,216.3l-3.6,9.9h54.1v-9.9H359.4z
	 M90.1,235.5v9.9h30.3v-9.9H90.1z M170.1,235.5v9.9h77.5c0,0,6.5-5.1,8.6-9.9H170.1z M289.6,235.5v9.9h30.3v-5.5l1.9,5.5h55.6
	l2.1-5.5v5.5h30.3v-9.9h-57l-3,8.3l-3-8.3H289.6z M90.1,254.7v9.9h30.3v-9.9H90.1z M170.1,254.7v9.9h86.1c-2.1-4.8-8.6-9.9-8.6-9.9
	H170.1z M289.6,254.7v9.9h30.3v-9.9H289.6z M325.4,254.7l3.7,9.9h41.7l3.5-9.9H325.4z M379.5,254.7v9.9h30.3v-9.9H379.5z
	 M90.1,273.8v9.9h30.3v-9.9H90.1z M170.1,273.8v9.9h30.3v-9.9H170.1z M230,273.8v9.9h32.3c0-4.6-1.9-9.9-1.9-9.9H230z M289.6,273.8
	v9.9h30.3v-9.9H289.6z M332.3,273.8l3.6,9.9h27.9l3.6-9.9H332.3z M379.5,273.8v9.9h30.3v-9.9H379.5z M70.5,293v9.9h70.1V293H70.5z
	 M150,293v9.9h107.9c2.3-2.3,3.6-9.9,3.6-9.9H150z M270,293v9.9h49.9V293H270z M339.2,293l3.7,9.9h14.2l3.4-9.9H339.2z M379.5,293
	v9.9H430V293H379.5z M70.5,312.1v9.9h70.1v-9.9H70.5z M150,312.1v9.8h76.1c13.5,0,23.7-9.8,23.7-9.8H150z M270,312.1v9.9h49.9v-9.9
	H270z M346.2,312.1l3.5,9.8l0.6,0l3.6-9.8H346.2z M379.5,312.1v9.9H430v-9.9H379.5z"/>
</svg>
