<?xml version="1.0" encoding="utf-8"?>
<!-- Generator: Adobe Illustrator 19.0.0, SVG Export Plug-In . SVG Version: 6.00 Build 0)  -->
<svg version="1.1" id="Layer_1" xmlns="http://www.w3.org/2000/svg" xmlns:xlink="http://www.w3.org/1999/xlink" x="0px" y="0px"
	 viewBox="0 0 500 500" style="enable-background:new 0 0 500 500;" xml:space="preserve">
<style type="text/css">
	.st0-jenk{fill:#D33833;}
	.st1-jenk{fill:#EF3D3A;}
	.st2-jenk{fill:#231F20;}
	.st3-jenk{fill:#F0D6B7;}
	.st4-jenk{fill:#335061;}
	.st5-jenk{fill:#6D6B6D;}
	.st6-jenk{fill:#DCD9D8;}
	.st7-jenk{fill:#F7E4CD;}
	.st8-jenk{fill:#49728B;}
	.st9-jenk{fill:#FFFFFF;}
	.st10-jenk{fill:#81B0C4;}
	.st11-jenk{fill:#1D1919;}
</style>
<g id="XMLID_1_">
	<path id="XMLID_3_" class="st0-jenk" d="M147.6,248c0,22.3-17.7,40.3-39.4,40.3c-21.8,0-39.4-18.1-39.4-40.3c0-22.3,17.7-40.4,39.4-40.4
		C130,207.6,147.6,225.7,147.6,248"/>
	<path id="XMLID_4_" class="st1-jenk" d="M70.3,258c0,0-2.9-42.1,35.9-43.3l-2.7-4.5l-21,7.1l-6,6.9l-5.3,10.1l-3,11.7l0.9,7.8"/>
	<path id="XMLID_7_" class="st2-jenk" d="M81.2,220.4c-6.9,7.1-11.2,16.9-11.2,27.7c0,10.8,4.3,20.6,11.2,27.7c6.9,7.1,16.5,11.4,27,11.4
		c10.6,0,20.1-4.4,27-11.4c6.9-7.1,11.2-16.9,11.2-27.7c0-10.8-4.3-20.6-11.2-27.7c-6.9-7.1-16.5-11.4-27-11.4
		C97.6,209,88.1,213.4,81.2,220.4z M79.4,277.5c-7.4-7.5-11.9-17.9-11.9-29.4c0-11.5,4.5-21.9,11.9-29.4
		c7.4-7.5,17.5-12.2,28.8-12.2c11.2,0,21.4,4.7,28.8,12.2c7.4,7.5,11.9,17.9,11.9,29.4c0,11.5-4.5,21.9-11.9,29.4
		c-7.4,7.5-17.5,12.2-28.8,12.2C96.9,289.7,86.8,285,79.4,277.5"/>
	<polyline id="XMLID_8_" class="st3-jenk" points="124.8,248.2 118.8,249.1 110.7,250 105.4,250.1 100.3,250 96.4,248.8 92.9,245 
		90.2,237.4 89.6,235.7 86,234.5 83.9,231.1 82.4,226.1 84.1,221.7 88,220.4 91.1,221.9 92.6,225.2 94.4,224.9 95,224.1 94.4,220.7 
		94.3,216.3 95.2,210.3 95.1,206.9 97.9,202.5 102.7,199 111.1,195.4 120.4,196.8 128.5,202.7 132.3,208.7 134.7,213 135.3,223.8 
		133.5,233.2 130.2,241.4 127,245.8 	"/>
	<polyline id="XMLID_9_" class="st4-jenk" points="119.7,274.2 98.2,275.1 98.2,278.7 100,291.3 99.1,292.4 84.1,287.3 83,285.5 
		81.5,268.5 78,258.3 77.3,255.8 89.3,247.6 93.1,246.1 96.4,250.1 99.2,252.7 102.5,253.7 104,254.2 105.8,262 107.2,263.7 
		110.7,262.5 108.2,267.1 121.3,273.3 119.7,274.2 	"/>
	<polyline id="XMLID_10_" class="st5-jenk" points="84.1,221.7 88,220.4 91.1,221.9 92.6,225.2 94.4,224.9 94.9,223.1 94,219.6 
		94.9,211.4 94.1,206.9 96.8,203.7 102.7,199 101,196.8 92.8,200.8 89.3,203.6 87.4,207.8 84.4,211.8 83.5,216.6 84.1,221.7 	"/>
	<path id="XMLID_11_" class="st6-jenk" d="M90.2,207.6c0,0,2.3-5.6,11.3-8.3c9-2.7,0.5-2,0.5-2l-9.8,3.8l-3.8,3.8l-1.7,3L90.2,207.6"/>
	<path id="XMLID_12_" class="st6-jenk" d="M85.7,220.7c0,0-3.2-10.5,8.9-12l-0.5-1.8l-8.3,2l-2.4,7.8l0.6,5.1L85.7,220.7"/>
	<path id="XMLID_13_" class="st7-jenk" d="M90.5,234.7l2-1.9c0,0,0.9,0.1,1,1.2c0.2,1.1,0.6,10.5,7.1,15.6c0.6,0.5-4.8-0.8-4.8-0.8
		l-4.8-7.5"/>
	<path id="XMLID_14_" class="st7-jenk" d="M118.2,231.8c0,0,0.4-4.6,1.6-4.2c1.2,0.4,1.2,1.6,1.2,1.6S118,231.1,118.2,231.8"/>
	<path id="XMLID_15_" class="st7-jenk" d="M130.6,215.1c0,0-2.5,0.5-2.7,2.7c-0.2,2.2,2.7,0.5,3.2,0.3"/>
	<path id="XMLID_16_" class="st7-jenk" d="M112.5,215.3c0,0-3.3,0.5-3.3,2.6c0,2.1,3.8,2,4.8,1.1"/>
	<path id="XMLID_17_" class="st7-jenk" d="M92,225c0,0-5.7-3.5-6.3-0.2c-0.6,3.3-2,5.7,0.9,9.2l-2-0.6l-1.8-4.7l-0.6-4.5l3.5-3.6l3.9,0.3
		l2.3,1.8L92,225"/>
	<path id="XMLID_18_" class="st7-jenk" d="M94.7,215.6c0,0,2.6-13.2,15.5-15.8c10.6-2.1,16.2,0.5,18.3,2.9c0,0-9.5-11.3-18.5-7.8
		c-9,3.5-15.6,9.8-15.5,13.8C94.8,215.6,94.7,215.6,94.7,215.6"/>
	<path id="XMLID_19_" class="st7-jenk" d="M129.6,204.2c0,0-4.4-0.2-4.5,3.8c0,0,0,0.6,0.3,1.2c0,0,3.5-3.9,5.6-1.8"/>
	<path id="XMLID_20_" class="st7-jenk" d="M110.5,209.5c0,0-0.8-6-5.9-2.5c-3.3,2.3-3,5.4-2.4,6c0.6,0.6,0.4,1.8,0.9,1
		c0.5-0.8,0.3-3.5,2-4.3C106.7,209,109.5,208.1,110.5,209.5"/>
	<path id="XMLID_21_" class="st8-jenk" d="M96.4,250.1l-14.1,6.3c0,0,5.9,23.3,2.9,30.5l-2.1-0.8l-0.2-8.9l-3.9-16.8l-1.7-4.7l14.7-9.9
		L96.4,250.1"/>
	<path id="XMLID_22_" class="st8-jenk" d="M97.8,263l2,2.4v9h-2.4c0,0-0.3-6.3-0.3-7.1c0-0.8,0.3-3.5,0.3-3.5"/>
	<polyline id="XMLID_23_" class="st8-jenk" points="97.9,275.8 91.1,276.1 93.1,277.5 97.9,278.2 	"/>
	<polyline id="XMLID_24_" class="st4-jenk" points="121,274.3 126.6,274.2 127.9,288 122.2,288.8 121,274.3 	"/>
	<path id="XMLID_25_" class="st4-jenk" d="M122.5,274.3l8.4-0.5c0,0,3.5-8.7,3.5-9.2s3-12.6,3-12.6l-6.8-7.1l-1.4-1.2l-3.6,3.6v14
		L122.5,274.3"/>
	<path id="XMLID_26_" class="st8-jenk" d="M126.3,273.3l-5.3,1.1l0.8,4.2c2,0.9,5.3-1.5,5.3-1.5"/>
	<polyline id="XMLID_27_" class="st8-jenk" points="126.4,247 137,254.8 137.3,251.2 129.3,243.8 126.4,247 	"/>
	<polyline id="XMLID_28_" class="st9-jenk" points="103.1,303.9 100,291.3 98.4,282 98.2,275.1 112.3,274.3 121,274.3 120.2,290.1 
		121.6,302.3 121.4,304.5 110,305.4 103.1,303.9 	"/>
	<path id="XMLID_29_" class="st6-jenk" d="M119.1,274.2c0,0-0.8,15.6,1.5,26.7c0,0-4.5,2.9-11.1,3.6l12.6-0.5l1.5-0.9l-1.8-24.6l-0.5-5.3
		"/>
	<polyline id="XMLID_30_" class="st9-jenk" points="128.2,286.8 134.1,285.2 145.2,284.6 146.8,279.4 143.8,270.6 140.4,270.1 
		135.6,271.6 130.9,273.9 128.5,273.4 126.6,274.2 	"/>
	<path id="XMLID_31_" class="st6-jenk" d="M128.1,283.8c0,0,3.9-1.8,4.5-1.7l-1.7-8.3l2-0.8c0,0,1.4,7.8,1.4,8.7c0,0,8.4,0.5,9.2,0.5
		c0,0,1.8-3.5,1.4-7.1l1.7,4.8l0.2,2.7l-2.4,3.6l-2.7,0.6l-4.5-0.2l-1.5-2l-5.3,0.8l-1.7,0.6"/>
	<path id="XMLID_32_" class="st9-jenk" d="M122.2,273.1l-3.3-8.4l-3.5-5c0,0,0.8-2.1,1.8-2.1c1.1,0,3.5,0,3.5,0l3.3,1.2l-0.3,5.6
		L122.2,273.1"/>
	<path id="XMLID_33_" class="st6-jenk" d="M122.8,270.3c0,0-4.2-8.1-4.2-9.3c0,0,0.8-1.8,1.8-1.4c1.1,0.5,3.3,1.7,3.3,1.7v-2.9l-5.1-1.1
		l-3.5,0.5l5.9,13.8l1.2,0.2"/>
	<polyline id="XMLID_34_" class="st9-jenk" points="104.4,250.4 100.3,250 96.4,248.8 96.4,250.1 98.3,252.2 104.3,254.9 	"/>
	<path id="XMLID_35_" class="st6-jenk" d="M97.7,250.9c0,0,4.7,2,6.2,1.5l0.1,1.8l-4.2-0.9l-2.6-1.8L97.7,250.9"/>
	<path id="XMLID_36_" class="st0-jenk" d="M128.2,258.2c-2.5-0.1-4.9-0.4-6.9-0.9c0.1-0.8-0.1-1.6,0.1-2.2c0.6-0.4,1.5-0.4,2.4-0.5
		c-0.7-0.4-1.8-0.5-2.6-0.3c0-0.6-0.3-0.9-0.4-1.4c1.4-0.5,4.8-3.9,6.7-2.8c0.9,0.5,1.3,3.5,1.4,5
		C128.8,256.3,128.7,257.5,128.2,258.2"/>
	<path id="XMLID_37_" class="st0-jenk" d="M128.2,258.2l0-0.4c-2.5-0.1-4.8-0.4-6.8-0.9l-0.1,0.3l0.4,0.1c0-0.2,0-0.4,0-0.6
		c0-0.4,0-0.7,0-1c0-0.2,0-0.4,0.1-0.5l-0.3-0.1l0.2,0.3c0.2-0.1,0.5-0.2,0.9-0.3c0.4-0.1,0.8-0.1,1.3-0.1l1.2-0.1l-1.1-0.5
		c-0.6-0.3-1.2-0.4-1.9-0.4c-0.3,0-0.6,0-0.9,0.1l0.1,0.4l0.4,0c0-0.3-0.1-0.6-0.2-0.9c-0.1-0.2-0.2-0.4-0.3-0.6l-0.3,0.1l0.1,0.3
		c0.4-0.1,0.8-0.4,1.2-0.7c0.7-0.5,1.5-1,2.3-1.5c0.8-0.5,1.6-0.8,2.2-0.8c0.3,0,0.5,0.1,0.7,0.2l0,0c0.1,0,0.1,0.1,0.2,0.2
		c0.1,0.2,0.3,0.5,0.4,0.9c0.4,1.1,0.5,2.7,0.6,3.7c0,0.1,0,0.3,0,0.4c0,0.5,0,1-0.1,1.4c-0.1,0.4-0.2,0.8-0.4,1L128.2,258.2l0-0.4
		L128.2,258.2l0.3,0.2c0.3-0.3,0.4-0.8,0.5-1.3c0.1-0.5,0.2-1,0.2-1.6c0-0.2,0-0.3,0-0.5c0-0.8-0.2-1.9-0.4-2.9
		c-0.1-0.5-0.3-1-0.4-1.4c-0.1-0.2-0.2-0.4-0.3-0.6c-0.1-0.2-0.3-0.3-0.4-0.4l0,0c-0.3-0.2-0.7-0.3-1.1-0.3c-0.6,0-1.1,0.2-1.7,0.4
		c-0.9,0.4-1.7,1-2.5,1.5c-0.4,0.3-0.7,0.5-1,0.7c-0.3,0.2-0.6,0.3-0.8,0.4l-0.3,0.1l0.1,0.3c0.1,0.3,0.2,0.5,0.3,0.7
		c0.1,0.2,0.1,0.4,0.1,0.6l0,0.4l0.4-0.1c0.2-0.1,0.5-0.1,0.8-0.1c0.6,0,1.2,0.1,1.6,0.4l0.2-0.3l0-0.4c-0.4,0-0.9,0.1-1.3,0.1
		c-0.4,0.1-0.9,0.2-1.2,0.4l-0.1,0.1l0,0.1c-0.1,0.2-0.1,0.5-0.1,0.7c0,0.4,0,0.7,0,1c0,0.2,0,0.3,0,0.5l-0.1,0.3l0.3,0.1
		c2.1,0.6,4.4,0.9,7,1l0.2,0l0.1-0.1L128.2,258.2z"/>
	<path id="XMLID_38_" class="st0-jenk" d="M116,254c0,0.2,0,0.4,0,0.6c-0.8,0.5-2.1,0.5-3,1c1.3,0.1,2.3,0.4,3.2,0.8c0,0.5,0,1-0.1,1.5
		c-1.5,1-2.8,2.5-4.5,3.4c-0.8,0.4-3.7,1.6-4.5,1.4c-0.5-0.1-0.5-0.7-0.7-1.3c-0.4-1.2-1.4-3.2-1.5-5c-0.1-2.3-0.3-6.2,2.2-5.8
		c2,0.4,4.4,1.3,5.9,2.2C114,253.2,114.5,253.9,116,254"/>
	<path id="XMLID_39_" class="st0-jenk" d="M116,254l-0.4,0c0,0.2,0,0.4,0,0.6l0.4,0l-0.2-0.3c-0.3,0.2-0.8,0.3-1.3,0.5
		c-0.5,0.1-1.1,0.2-1.6,0.5l-1.2,0.6l1.4,0.1c1.2,0.1,2.2,0.3,3,0.8l0.2-0.3l-0.4,0c0,0.5,0,1-0.1,1.5l0.4,0l-0.2-0.3
		c-0.8,0.5-1.5,1.1-2.2,1.8c-0.7,0.6-1.5,1.2-2.3,1.6c-0.3,0.2-1.1,0.5-2,0.8c-0.4,0.1-0.8,0.3-1.2,0.4c-0.4,0.1-0.7,0.2-0.9,0.2
		c-0.1,0-0.1,0-0.2,0c-0.1,0-0.1,0-0.1-0.1c-0.1-0.1-0.1-0.2-0.2-0.4c-0.1-0.2-0.1-0.4-0.2-0.6l0,0c-0.2-0.6-0.6-1.4-0.9-2.3
		c-0.3-0.9-0.5-1.8-0.6-2.6c0-0.6-0.1-1.2-0.1-1.9c0-0.9,0.1-1.9,0.3-2.6c0.1-0.3,0.3-0.6,0.5-0.7c0.2-0.2,0.4-0.2,0.7-0.2
		c0.1,0,0.2,0,0.3,0c2,0.4,4.3,1.3,5.8,2.1c0.4,0.2,0.8,0.5,1.3,0.8c0.5,0.3,1,0.5,1.8,0.5L116,254l-0.4,0L116,254l0-0.4
		c-0.7-0.1-1.1-0.2-1.5-0.4c-0.4-0.2-0.8-0.5-1.3-0.8c-1.6-0.9-4-1.8-6.1-2.2c-0.2,0-0.3,0-0.5,0c-0.5,0-0.9,0.2-1.2,0.4
		c-0.5,0.4-0.7,1-0.8,1.7c-0.1,0.7-0.2,1.4-0.2,2.2c0,0.7,0,1.3,0.1,1.9c0,1,0.3,2,0.6,2.8c0.3,0.9,0.7,1.7,0.9,2.3l0,0
		c0.1,0.3,0.1,0.6,0.3,0.8c0.1,0.1,0.1,0.3,0.3,0.4c0.1,0.1,0.3,0.2,0.5,0.3c0.1,0,0.2,0,0.3,0c0.3,0,0.7-0.1,1.1-0.2
		c0.6-0.2,1.3-0.4,1.9-0.6c0.6-0.2,1.1-0.5,1.4-0.6c0.9-0.5,1.7-1.1,2.4-1.7c0.7-0.6,1.4-1.2,2.1-1.7l0.1-0.1l0-0.2
		c0-0.5,0-1,0.1-1.5l0-0.2l-0.2-0.1c-0.9-0.5-2-0.8-3.3-0.8l0,0.4l0.2,0.3c0.4-0.2,0.9-0.3,1.4-0.4c0.5-0.1,1.1-0.3,1.6-0.6l0.2-0.1
		l0-0.2c0-0.2,0-0.4,0-0.6l0-0.3l-0.3,0L116,254z"/>
	<path id="XMLID_40_" class="st0-jenk" d="M117.4,256.8c-0.2-1.3-0.5-1.6-0.4-2.7C120.4,251.8,121.1,257.9,117.4,256.8"/>
	<path id="XMLID_41_" class="st0-jenk" d="M117.4,256.8l0.4-0.1c-0.1-0.6-0.2-0.9-0.3-1.3c-0.1-0.3-0.1-0.6-0.1-0.9c0-0.1,0-0.3,0-0.4
		l-0.4,0l0.2,0.3c0.5-0.3,0.9-0.4,1.2-0.4c0.2,0,0.3,0,0.5,0.1c0.2,0.1,0.3,0.3,0.5,0.5c0.1,0.2,0.2,0.5,0.2,0.7
		c0,0.4-0.1,0.7-0.3,0.9c-0.2,0.2-0.5,0.4-0.9,0.4c-0.2,0-0.5,0-0.7-0.1L117.4,256.8l0.4-0.1L117.4,256.8l-0.1,0.3
		c0.3,0.1,0.7,0.2,1,0.2c0.6,0,1.2-0.3,1.5-0.7c0.3-0.4,0.5-0.9,0.5-1.4c0-0.5-0.1-1-0.4-1.4c-0.2-0.2-0.3-0.4-0.6-0.5
		c-0.2-0.1-0.5-0.2-0.8-0.2c-0.5,0-1,0.2-1.6,0.6l-0.1,0.1l0,0.2c0,0.2,0,0.3,0,0.5c0,0.4,0.1,0.8,0.1,1.1c0.1,0.3,0.2,0.7,0.3,1.2
		l0,0.2l0.2,0.1L117.4,256.8z"/>
	<path id="XMLID_42_" class="st1-jenk" d="M122.3,257.8c0,0-1.1-1.5-0.3-2c0.8-0.5,1.5,0,2-0.8c0.5-0.8,0-1.2,0.2-2.1
		c0.2-0.9,0.9-1.1,1.7-1.2c0.8-0.2,2.9-0.5,3.2,0.3l-0.9-2.7l-1.8-0.6l-5.7,3.3l-0.3,1.7v3.3"/>
	<path id="XMLID_43_" class="st1-jenk" d="M106.6,262.8c-0.2-2.3-0.4-4.7-0.6-7c-0.3-3.5,0.8-2.9,3.9-2.9c0.5,0,2.9,0.6,3,0.9
		c0.8,1.7-1.4,1.3,0.9,2.6c2,1.1,5.4-0.6,4.6-3c-0.4-0.5-2.3-0.2-3-0.5c-1.2-0.6-2.3-1.2-3.5-1.8c-1.5-0.8-4.9-1.9-6.5-0.8
		c-4,2.7,0.3,9.6,1.7,12.5"/>
	<path id="XMLID_44_" class="st2-jenk" d="M110.5,209.5c-4.1-1-6.1,1.7-7.4,4.5c-1.1-0.3-0.7-1.8-0.4-2.5c0.7-2,3.7-4.7,6.1-4.3
		C109.9,207.3,111.3,208.2,110.5,209.5"/>
	<path id="XMLID_45_" class="st2-jenk" d="M130.5,214.2c0.1,0,0.1,0,0.2,0c0.9,1.9,1.7,4,2.9,5.7c-0.8,1.8-5.9,3.4-5.8,0.2
		c1.1-0.5,3-0.1,4-0.7C131.2,217.7,130.3,216.4,130.5,214.2"/>
	<path id="XMLID_46_" class="st2-jenk" d="M112.6,214.2c0.9,1.6,1.2,3.3,2.4,4.5c0.6,0.5,1.7,1.2,1.1,2.7c-0.1,0.4-1.1,1.2-1.6,1.3
		c-2,0.6-6.5,0.1-5-2.3c1.6,0.1,3.8,1,5-0.1C113.6,218.9,112,216,112.6,214.2"/>
	<path id="XMLID_47_" class="st2-jenk" d="M129.7,230.6c-2.9,1.9-6.2,3.9-11,3.5c-1-0.9-1.4-2.9-0.4-4.2c0.5,0.9,0.2,2.5,1.6,2.8
		c2.7,0.5,5.9-1.7,7.9-2.4c1.2-2.1-0.1-2.8-1.2-4.1c-2.2-2.7-5.3-6.1-5.2-10.1c0.9-0.7,1,1,1.1,1.3c1.2,2.7,4.1,6.3,6.3,8.6
		c0.5,0.6,1.4,1.1,1.5,1.5C130.6,228.5,129.6,229.9,129.7,230.6"/>
	<path id="XMLID_48_" class="st2-jenk" d="M91,228.6c-0.9-0.5-1.1-2.8-2.2-2.9c-1.5-0.1-1.3,3-1.3,4.8c-1.1-1-1.3-3.9-0.5-5.5
		c-0.9-0.4-1.3,0.5-1.8,0.8C85.9,221.2,92,223.7,91,228.6"/>
	<path id="XMLID_49_" class="st2-jenk" d="M131.6,232.5c-1.4,2.6-3.3,5.5-7.3,5.6c-0.1-0.8-0.1-2.1,0-2.6
		C127.4,235.1,129.3,233.6,131.6,232.5"/>
	<path id="XMLID_50_" class="st2-jenk" d="M112.4,234.2c2.6,1.3,7.3,1.5,10.7,1.4c0.2,0.8,0.2,1.7,0.2,2.6
		C118.8,238.5,113.5,237.3,112.4,234.2"/>
	<path id="XMLID_51_" class="st2-jenk" d="M111.9,236.7c1.8,4.4,7.9,3.9,13,3.8c-0.2,0.6-0.7,1.3-1.3,1.5c-1.6,0.7-6.2,1.2-8.5,0
		c-1.4-0.8-2.4-2.5-3.2-3.5C111.5,238,109.6,236.7,111.9,236.7"/>
	<path id="XMLID_52_" class="st10-jenk" d="M129.5,261.2c-2.1,3.6-4.1,7.2-6.5,10.4c1-3,1.5-8.1,1.6-12
		C126.8,258.6,128.6,259.8,129.5,261.2"/>
	<path id="XMLID_53_" class="st2-jenk" d="M140.7,274c-2.3,0.5-4,2.7-6.2,2.6C135.7,274.8,137.9,274.1,140.7,274"/>
	<path id="XMLID_54_" class="st2-jenk" d="M141.7,277.7c-1.9,0.2-4.1,0.5-6,0.3C136.6,276.6,140.1,277.1,141.7,277.7"/>
	<path id="XMLID_55_" class="st2-jenk" d="M142.4,280.8c-2.1,0-4.8,0-6.8-0.2C136.8,279.3,141,280.2,142.4,280.8"/>
	<path id="XMLID_56_" class="st6-jenk" d="M125.5,289.4c0.3,2.7,1.4,5.4,1.2,8.3c-1.2,0.4-1.9,0.7-3.4,0.7c-0.1-2.5-0.4-6.3-0.3-8.7
		C123.7,289.8,124.9,289.2,125.5,289.4"/>
	<path id="XMLID_57_" class="st3-jenk" d="M122.1,250c-1.1,0.7-2,1.6-3,2.3c-2.3,0.1-3.5-0.2-5.2-1.5c0-0.1,0.2-0.1,0.2-0.2
		C116.5,251.7,119.6,250.2,122.1,250"/>
	<path id="XMLID_58_" class="st10-jenk" d="M109.3,266.6c0.7-2.9,3.3-4.4,5.7-6c2.5,3.1,4,7.1,5.6,11
		C116.7,270.4,112.7,268.5,109.3,266.6"/>
	<path id="XMLID_78_" class="st2-jenk" d="M123,289.8c-0.1,2.4,0.2,6.2,0.3,8.7c1.6,0,2.3-0.3,3.4-0.7c0.1-2.9-0.9-5.6-1.2-8.3
		C124.9,289.2,123.7,289.8,123,289.8z M98.4,276.3c1,9.6,2.5,17.6,5.3,26.1c6.1,1.9,13.5,2,19,0.3c-1-4.8-0.6-10.6-1.1-15.7
		c-0.4-3.8-0.2-7.7-0.8-11.6C114.1,274,104.8,275.1,98.4,276.3z M122.3,275.4c-0.1,4.1,0.2,8.2,0.5,12.3c1.6-0.2,2.6-0.4,4.1-0.7
		c-0.5-4-0.4-8.4-1.4-11.9C124.4,275.1,123.4,275.1,122.3,275.4z M130.3,274.8c-0.7-0.2-1.6,0-2.3,0c0.3,3.3,1.2,7,1.4,10.6
		c1.1,0,1.7-0.5,2.7-0.7C132.1,281.6,131.7,277.3,130.3,274.8L130.3,274.8z M142.4,285.9c2.3-0.6,3.8-3.4,3.2-6.4
		c-0.4-2-1.2-5.7-2.1-7c-0.6-0.9-2.3-2.2-3.6-1.3c-2.2,1.4-6,1.8-7.6,3.5c0.8,2.7,1,6.3,1.4,9.7c2.7,0.2,6.1-0.8,8.4,0.2
		c-1.6,0.5-3.6,0.5-5,1.3C138,286.4,140.7,286.3,142.4,285.9L142.4,285.9z M120.6,271.6c-1.6-3.9-3.1-7.9-5.6-11
		c-2.4,1.6-5,3.1-5.7,6C112.7,268.5,116.7,270.4,120.6,271.6z M124.6,259.6c-0.2,3.9-0.6,9-1.6,12c2.5-3.1,4.5-6.8,6.5-10.4
		C128.6,259.8,126.8,258.6,124.6,259.6z M120,257.9c-0.9-0.1-1.7,1.1-2.9,0.6c-0.3,0.3-0.5,0.6-0.8,0.9c2.7,3.2,3.9,7.8,6,11.6
		c1.1-3.6,1-7.6,1.2-11.6C121.9,259.5,121.1,258.1,120,257.9z M117,254c-0.1,1.1,0.2,1.5,0.4,2.7C121.1,257.9,120.4,251.8,117,254z
		 M113,252.7c-1.6-0.9-3.9-1.8-5.9-2.2c-2.5-0.5-2.3,3.4-2.2,5.8c0.1,1.8,1,3.8,1.5,5c0.2,0.6,0.2,1.2,0.7,1.3
		c0.9,0.2,3.7-0.9,4.5-1.4c1.7-0.9,3.1-2.4,4.5-3.4c0-0.5,0-1,0.1-1.5c-0.9-0.4-1.9-0.7-3.2-0.8c0.9-0.4,2.2-0.4,3-1
		c0-0.2,0-0.4,0-0.6C114.5,253.9,114,253.2,113,252.7z M98,250c-1.3,1.3,3.6,3.1,5.2,3.2c0-0.8,0.5-1.6,0.4-2.2
		C101.8,250.7,99.3,250.9,98,250z M114.1,250.6c0,0.1-0.2,0.1-0.2,0.2c1.7,1.3,2.9,1.6,5.2,1.5c1-0.7,1.9-1.6,3-2.3
		C119.6,250.2,116.5,251.7,114.1,250.6z M128.8,255.1c-0.1-1.5-0.5-4.5-1.4-5c-1.9-1.1-5.3,2.2-6.7,2.8c0.2,0.4,0.4,0.8,0.4,1.4
		c0.8-0.2,1.9-0.1,2.6,0.3c-0.8,0.1-1.8,0.1-2.4,0.5c-0.2,0.6,0.1,1.4-0.1,2.2c2,0.6,4.3,0.9,6.9,0.9
		C128.7,257.5,128.8,256.3,128.8,255.1z M95.9,251.3c-0.4-0.3-3.2-3.9-3.6-3.7c-5,2-9.7,5.4-13.9,8.6c4,8.5,5.6,19,5.9,29.1
		c4.6,2.1,8.6,5.2,14.8,5.5c-0.7-5.1-1.4-9.6-1.8-14.4c-1.6-0.7-3.8,0-5.2-0.2c0-1.8,2.2-0.8,2.4-1.9c0.1-0.9-1.2-1-0.8-2.4
		c1.1,0.4,1.7,1.3,3,1.7c1.1-2.4,0-6.7,0.1-8.8c0-0.4,0.2-2.1,1-1.8c0.8,0.3,0,4.6,0,6.5c0.1,1.8-0.2,3.5,0.5,4.6
		c6-0.8,12.1-1.3,18.5-1.5c-1.4-0.6-3.1-1.2-5-2.2c-1-0.6-4.2-1.7-4.5-2.7c-0.5-1.5,1.2-2.3,1.5-3.6c-3,1.6-3.6-1.6-4.3-3.9
		c-0.6-2.1-1-3.6-1.2-4.8C100.9,254.1,98.1,252.9,95.9,251.3L95.9,251.3z M126.1,248c4.2-2,4.9,7.6,3.3,10.6
		c0.3,0.9,1.1,1.3,1.5,2.1c-2.3,4.2-4.9,8.1-7.3,12.2c1.8-1.1,4.3-0.2,6.4-1c0.8-0.3,1.3-2,1.9-3.4c1.6-3.8,3.2-8.6,4-12.3
		c0.2-0.8,0.6-2.6,0.5-3.4c-0.2-1.3-2-2.3-2.9-3.1c-1.7-1.5-2.7-2.8-4.5-4.3C128.3,246.4,126.7,247.1,126.1,248L126.1,248z
		 M86.3,211c-2,2.2-1.6,6.3-1.3,9.2c3.6-2.3,8.4,0.2,8.3,4c1.7,0,0.6-2.1,0.3-3.5c-1-4.4,1.7-9.2,0.1-13.2
		C90.7,207.7,88.2,209,86.3,211L86.3,211z M100.5,198.3c-4.5,1.3-10.3,4.5-12.1,8.6c1.4-0.2,2.4-0.9,3.8-1c0.5,0,1.2,0.2,1.8,0.1
		c1.2-0.3,2.3-3,3.2-4.1c0.9-1,2-1.4,2.7-2.3c0.5-0.2,1.2-0.2,1.2-0.9C101,198.4,100.8,198.3,100.5,198.3z M123.9,199.5
		c-4.7-2.6-12.6-4.6-17.5-2.1c-4,2-9.4,5.3-11.3,9.5c1.7,4-0.5,7.7-0.7,11.8c-0.1,2.2,1,4.1,1.1,6.5c-0.6,1-2.4,1.1-3.6,1
		c-0.4-2.1-1.2-4.5-3.3-4.7c-3.1-0.3-5.3,2.2-5.4,4.8c-0.2,3.1,2.4,8.3,6,7.9c1.4-0.1,1.7-1.5,3.3-1.5c0.8,1.6-1.3,2.2-1.5,3.3
		c-0.1,0.3,0.2,1.5,0.3,2.1c0.7,2.7,2.1,6.2,3.6,8.3c1.8,2.6,5.4,3,9.3,3.3c0.7-1.5,3.2-1.4,4.9-1c-2-0.8-3.8-2.7-5.4-4.4
		c-1.8-1.9-3.5-4-3.6-6.6c3.3,4.6,6.1,8.7,12.1,10.7c4.6,1.5,9.9-0.7,13.5-3.2c1.5-1,2.3-2.7,3.4-4.2c3.9-5.6,5.7-13.6,5.3-21.3
		c-0.2-3.2-0.2-6.4-1.2-8.5c-1.1-2.2-4.9-4.2-7.1-2.2c-0.4-2.2,1.8-3.5,4.5-2.7C128.6,204,126.6,201,123.9,199.5L123.9,199.5z
		 M132.6,271.5c3.6-1.8,10.5-4.9,12.7,0c0.8,1.8,1.8,4.8,2.3,6.7c0.6,2.6-0.7,8.1-3.4,9c-2.4,0.8-5.2,0.7-8,0.2
		c-0.3-0.3-0.7-0.8-1-1.3c-2-0.1-4,0.1-5.6,1c0.2,1.5-0.9,1.8-1.8,2.1c-0.7,2.8,1.4,6.5,0.9,9.1c-0.4,1.8-2.6,2.1-4.3,2.5
		c-0.1,1,0.1,1.9,0.2,2.7c-0.4,1.4-2.1,2.2-3.7,2.4c-5.3,0.6-13.4,0.9-18.5-0.9c-1.4-3.5-2.5-7.7-3.7-11.7c-5,0.5-9-2.1-12.8-3.9
		c-1.3-0.6-3.1-0.9-3.6-2c-0.5-1-0.3-3-0.4-4.8c-0.3-4.7-0.6-9.2-1.8-14c-0.6-2.1-1.5-4-2.2-6.1c-0.6-1.9-1.7-4.3-2-6.2
		c-0.4-2.8,2.3-3,4-4.2c2.6-1.9,4.7-3,7.6-4.7c0.8-0.5,3.4-1.8,3.7-2.4c0.6-1.2-1-2.8-1.4-3.8c-0.7-1.5-1-2.7-1.1-4.1
		c-2.4-0.4-4.2-1.8-5.3-3.4c-1.8-2.7-3.1-7.6-1.5-11.3c0.1-0.3,0.7-0.9,0.8-1.3c0.2-0.9-0.3-2.1-0.4-3c-0.2-4.9,0.8-9.1,4.1-10.5
		c1.3-5.3,6.1-7.1,10.6-9.7c1.7-1,3.5-1.6,5.4-2.3c6.9-2.5,17.4-2,23.1,2.3c2.4,1.8,6.3,5.7,7.6,8.5c3.6,7.4,3.4,19.7,0.8,28.6
		c-0.3,1.2-0.8,3-1.5,4.4c-0.5,1-2,3-1.8,3.9c0.2,0.9,3.4,3.4,4.1,4.1c1.3,1.2,3.6,2.8,3.8,4.3c0.2,1.6-0.7,3.8-1.2,5.4
		C135.9,262,134.4,266.8,132.6,271.5"/>
	<path id="XMLID_79_" class="st7-jenk" d="M108.3,235.3c0.2-0.3,1.3-0.7,2.8,0.1c0,0-1.8,0.3-1.7,3.3l-0.8-0.2
		C108.7,238.6,107.9,235.8,108.3,235.3"/>
	<path id="XMLID_80_" class="st11-jenk" d="M121.5,261.2c0,0.5-0.4,0.8-0.8,0.8c-0.5,0-0.8-0.4-0.8-0.8s0.4-0.8,0.8-0.8
		C121.1,260.4,121.5,260.7,121.5,261.2"/>
	<path id="XMLID_81_" class="st11-jenk" d="M122.3,265c0,0.5-0.4,0.8-0.8,0.8c-0.5,0-0.8-0.4-0.8-0.8s0.4-0.8,0.8-0.8
		C121.9,264.2,122.3,264.6,122.3,265"/>
	<path id="XMLID_91_" d="M428.4,272.1c2.7-1.9,4.1-4.6,4.1-8.1c0-2.6-0.9-4.7-2.6-6.4c-1.8-1.7-4.5-3-8.3-4c-2.4-0.6-4.4-1.3-5.7-2
		c-1.4-0.7-2-1.9-2-3.5c0-1.2,0.5-2.1,1.4-2.8c0.9-0.7,2.2-1,3.8-1c2.1,0,4,0.8,5.8,2.4c1.8,1.6,3.1,3.5,3.8,5.7h2.2l-0.5-10.8H428
		l-0.7,1.9c-1.1-0.5-2.5-0.9-4.1-1.3c-1.6-0.4-3.4-0.6-5.3-0.6c-4.1,0-7.3,0.9-9.8,2.8c-2.5,1.8-3.8,4.2-3.8,7.2
		c0,1.6,0.3,3,0.9,4.2c0.6,1.2,1.3,2.2,2.3,3c1.1,0.9,2.2,1.6,3.2,2c1,0.4,2.3,0.9,3.7,1.3c1.4,0.4,2.6,0.8,3.6,1.1
		c1,0.3,1.9,0.7,2.7,1.1c0.7,0.4,1.3,0.9,1.7,1.4c0.4,0.5,0.6,1.2,0.6,2.1c0,1.6-0.5,2.7-1.4,3.5c-0.9,0.8-2.4,1.1-4.3,1.1
		c-1.5,0-2.8-0.3-4.1-1c-1.3-0.7-2.4-1.5-3.4-2.4c-1-1-1.8-2-2.5-3.2c-0.7-1.2-1.3-2.3-1.6-3.2h-2.3l0.4,11.8h2.5l1-2.2
		c1.1,0.7,2.6,1.3,4.5,1.9c2,0.6,4,0.9,6,0.9C422.2,275,425.7,274,428.4,272.1z M400.2,271.6c-0.6-0.1-1.2-0.2-1.7-0.3
		c-0.5-0.1-0.9-0.3-1.3-0.4c-0.6-0.3-1.1-0.6-1.3-1.1c-0.2-0.5-0.3-1.1-0.3-1.9v-15.5c0-3.2-0.9-5.8-2.6-7.8c-1.7-2-4.3-2.9-7.8-2.9
		c-1.4,0-2.8,0.2-4.1,0.5c-1.3,0.4-2.3,0.8-3.1,1.3c-0.7,0.5-1.5,1.1-2.3,1.8c-0.8,0.7-1.6,1.4-2.2,1.9h-0.1v-4.6l-0.5-0.5
		l-15.1,0.8v2.3c0.7,0.1,1.3,0.2,1.9,0.3c0.6,0.2,1.1,0.4,1.4,0.6c0.5,0.4,1,0.9,1.3,1.6c0.3,0.6,0.5,1.3,0.5,1.9v18.4
		c0,0.8-0.1,1.4-0.4,1.9c-0.3,0.5-0.7,0.8-1.4,1.1c-0.4,0.1-0.8,0.2-1.4,0.3c-0.5,0.1-1.1,0.1-1.6,0.2v2.3h19.3v-2.3
		c-0.5-0.1-1-0.2-1.5-0.3c-0.5-0.1-0.9-0.3-1.3-0.5c-0.5-0.3-0.8-0.6-1-1.1c-0.2-0.5-0.3-1.1-0.3-1.9v-17c0.3-0.3,0.6-0.7,0.9-1.2
		c0.4-0.4,0.9-0.9,1.5-1.3c0.7-0.5,1.4-0.9,2.1-1.1c0.7-0.3,1.5-0.4,2.4-0.4c1.5,0,2.7,0.5,3.5,1.6c0.8,1.1,1.2,2.7,1.2,4.9v14.8
		c0,0.9-0.1,1.5-0.3,2c-0.2,0.4-0.5,0.8-1,1c-0.3,0.1-0.7,0.3-1.3,0.3c-0.6,0.1-1.1,0.1-1.5,0.2v2.3h19.1V271.6z M348.9,226.5
		c-1.2-1.1-2.7-1.7-4.4-1.7c-1.7,0-3.2,0.6-4.4,1.7c-1.2,1.1-1.9,2.5-1.9,4.1c0,1.6,0.6,3,1.9,4.1c1.2,1.1,2.7,1.7,4.4,1.7
		c1.7,0,3.2-0.6,4.4-1.7c1.2-1.1,1.9-2.5,1.9-4.1C350.8,229.1,350.2,227.7,348.9,226.5z M355.4,271.6c-0.5-0.1-1.1-0.2-1.6-0.3
		c-0.5-0.1-1-0.3-1.4-0.5c-0.6-0.3-1-0.6-1.4-1.2c-0.3-0.5-0.5-1.1-0.5-1.9v-25.2l-0.5-0.5l-15.5,0.8v2.3c0.6,0.1,1.3,0.2,2.1,0.4
		c0.8,0.2,1.3,0.5,1.7,0.7c0.5,0.3,0.9,0.8,1.3,1.3c0.3,0.6,0.5,1.2,0.5,1.9v18.4c0,0.8-0.1,1.4-0.4,1.9c-0.3,0.5-0.8,0.8-1.4,1.1
		c-0.4,0.1-0.8,0.3-1.4,0.3c-0.5,0.1-1.1,0.1-1.6,0.2v2.3h20V271.6z M335,271.6c-1-0.1-1.9-0.3-2.9-0.6c-1-0.3-1.8-1-2.4-2
		c-1.9-2.9-3.8-5.6-5.5-8.1c-1.8-2.6-3.7-5.3-5.7-8.3c1.1-0.9,2-1.7,2.8-2.3c0.8-0.6,1.6-1.2,2.5-1.8c1.3-0.9,2.5-1.6,3.6-2.1
		c1.1-0.5,2.7-1.1,4.8-1.7v-2.2h-16.1v2.3c1.3,0.2,2.3,0.4,3,0.7c0.7,0.3,1,0.6,1,1c0,0.1,0,0.3-0.1,0.7c-0.1,0.4-0.5,0.9-1.2,1.6
		c-1.2,1.2-2.7,2.7-4.7,4.6c-2,1.8-3.7,3.5-5.3,4.8v-32.7l-0.5-0.5l-15.8,0.8v2.3c0.7,0,1.4,0.1,2.2,0.3c0.8,0.2,1.4,0.4,1.8,0.6
		c0.6,0.4,1,0.9,1.3,1.7c0.3,0.8,0.5,1.5,0.5,2.2v35.3c0,0.8-0.1,1.4-0.4,1.9c-0.2,0.5-0.7,0.8-1.4,1.1c-0.4,0.1-0.9,0.2-1.4,0.3
		c-0.5,0.1-1.1,0.1-1.6,0.2v2.3h19.7v-2.3c-0.5,0-1-0.1-1.5-0.3s-1-0.3-1.3-0.4c-0.6-0.2-1.1-0.6-1.3-1.1c-0.2-0.5-0.3-1.1-0.3-1.9
		V261l1.9-1.6c1.4,1.9,2.8,4,4.3,6.2c1.5,2.2,3.2,5,5,8.2H335V271.6z M291.4,271.6c-0.6-0.1-1.2-0.2-1.7-0.3
		c-0.5-0.1-0.9-0.3-1.3-0.4c-0.6-0.3-1.1-0.6-1.3-1.1c-0.2-0.5-0.3-1.1-0.3-1.9v-15.5c0-3.2-0.9-5.8-2.6-7.8c-1.7-2-4.3-2.9-7.8-2.9
		c-1.4,0-2.8,0.2-4.1,0.5c-1.3,0.4-2.3,0.8-3.1,1.3c-0.7,0.5-1.5,1.1-2.3,1.8c-0.8,0.7-1.6,1.4-2.2,1.9h-0.1v-4.6l-0.5-0.5
		l-15.1,0.8v2.3c0.7,0.1,1.3,0.2,1.9,0.3c0.6,0.2,1.1,0.4,1.4,0.6c0.5,0.4,1,0.9,1.3,1.6c0.3,0.6,0.5,1.3,0.5,1.9v18.4
		c0,0.8-0.1,1.4-0.4,1.9c-0.3,0.5-0.7,0.8-1.4,1.1c-0.4,0.1-0.8,0.2-1.4,0.3c-0.5,0.1-1.1,0.1-1.6,0.2v2.3h19.3v-2.3
		c-0.5-0.1-1-0.2-1.5-0.3c-0.5-0.1-0.9-0.3-1.3-0.5c-0.5-0.3-0.8-0.6-1-1.1c-0.2-0.5-0.3-1.1-0.3-1.9v-17c0.3-0.3,0.6-0.7,0.9-1.2
		c0.4-0.4,0.9-0.9,1.5-1.3c0.7-0.5,1.4-0.9,2.1-1.1c0.7-0.3,1.5-0.4,2.4-0.4c1.5,0,2.7,0.5,3.5,1.6c0.8,1.1,1.2,2.7,1.2,4.9v14.8
		c0,0.9-0.1,1.5-0.3,2c-0.2,0.4-0.5,0.8-1,1c-0.3,0.1-0.7,0.3-1.3,0.3c-0.6,0.1-1.1,0.1-1.5,0.2v2.3h19.1V271.6z M224.2,254.4
		c0.1-3.6,0.6-6.2,1.6-7.8c1-1.6,2.3-2.5,3.9-2.5c1,0,1.7,0.3,2.4,0.8c0.6,0.5,1.1,1.3,1.5,2.3c0.3,0.8,0.5,1.9,0.7,3.3
		c0.1,1.3,0.2,2.6,0.2,3.9L224.2,254.4z M244.1,264.6c-1.1,1.7-2.5,3-4.1,4.1c-1.6,1.1-3.4,1.6-5.4,1.6c-3.6,0-6.3-1.1-8-3.4
		c-1.7-2.3-2.5-5.6-2.5-9.9h21.4V255c0-1.8-0.3-3.5-0.8-5.2c-0.5-1.6-1.4-3.1-2.6-4.3c-1.2-1.3-2.8-2.3-4.7-3
		c-1.9-0.7-4.3-1.1-7.3-1.1c-2.7,0-5.2,0.5-7.3,1.4c-2.2,0.9-4,2.1-5.4,3.6c-1.5,1.5-2.6,3.3-3.4,5.3c-0.8,2-1.2,4-1.2,6.2
		c0,2.4,0.4,4.6,1.1,6.6c0.7,2,1.8,3.8,3.3,5.3c1.5,1.5,3.4,2.7,5.6,3.6c2.3,0.9,5,1.3,8.1,1.3c1.9,0,3.5-0.2,5-0.6
		c1.4-0.4,2.9-1,4.3-1.8c1.3-0.8,2.5-1.7,3.6-2.7c1-1.1,1.9-2.2,2.7-3.4L244.1,264.6z M208.9,228.9h-24v2.5c0.6,0.1,1.3,0.2,2.2,0.4
		c0.9,0.2,1.7,0.4,2.3,0.7c0.9,0.4,1.5,0.8,1.7,1.3c0.2,0.5,0.4,1.1,0.4,1.9v25.4c0,3.7-0.7,6.4-2.2,8.2c-1.5,1.8-3.4,2.7-6,2.7
		c-0.7,0-1.3-0.1-1.9-0.4c-0.6-0.3-1-0.7-1.2-1.1v-0.4c1.2-1,2.3-2,3.2-3.2c0.9-1.2,1.4-2.4,1.4-3.8c0-1.6-0.5-2.9-1.6-4
		c-1.1-1.1-2.6-1.6-4.4-1.6c-1.9,0-3.5,0.6-4.6,1.9c-1.1,1.3-1.7,2.9-1.7,4.9c0,3.3,1.2,5.9,3.6,7.8c2.4,1.9,5.6,2.9,9.6,2.9
		c2.3,0,4.4-0.3,6.4-1c2-0.6,3.8-1.6,5.5-2.9c1.6-1.3,2.9-2.9,3.8-4.8c0.9-1.9,1.4-4,1.4-6.3v-24.8c0-0.8,0.1-1.4,0.4-2
		c0.2-0.6,0.8-1,1.7-1.2c0.7-0.2,1.4-0.3,2-0.4c0.6-0.1,1.3-0.2,2.2-0.3V228.9z"/>
</g>
</svg>
