<?xml version="1.0" encoding="iso-8859-1"?>
<!-- Generator: Adobe Illustrator 19.0.0, SVG Export Plug-In . SVG Version: 6.00 Build 0)  -->
<svg version="1.1" id="Capa_1" xmlns="http://www.w3.org/2000/svg" xmlns:xlink="http://www.w3.org/1999/xlink" x="0px" y="0px"
	 viewBox="0 0 511.999 511.999" style="enable-background:new 0 0 511.999 511.999;" xml:space="preserve">
<g>
	<g>
		<path d="M235.549,355.471h-4.276c-4.142,0-7.5,3.357-7.5,7.5s3.358,7.5,7.5,7.5h4.276c4.142,0,7.5-3.357,7.5-7.5
			S239.692,355.471,235.549,355.471z"/>
	</g>
</g>
<g>
	<g>
		<path d="M438.478,460.837h-4.276c-4.142,0-7.5,3.357-7.5,7.5s3.358,7.5,7.5,7.5h4.276c4.142,0,7.5-3.357,7.5-7.5
			S442.62,460.837,438.478,460.837z"/>
	</g>
</g>
<g>
	<g>
		<path d="M468.842,316.622h-65.006c-4.142,0-7.5,3.357-7.5,7.5c0,4.143,3.358,7.5,7.5,7.5h65.006c4.142,0,7.5-3.357,7.5-7.5
			C476.343,319.979,472.986,316.622,468.842,316.622z"/>
	</g>
</g>
<g>
	<g>
		<path d="M468.842,353.338h-65.006c-4.142,0-7.5,3.357-7.5,7.5s3.358,7.5,7.5,7.5h65.006c4.142,0,7.5-3.357,7.5-7.5
			S472.986,353.338,468.842,353.338z"/>
	</g>
</g>
<g>
	<g>
		<path d="M468.842,390.057h-65.006c-4.142,0-7.5,3.357-7.5,7.5c0,4.143,3.358,7.5,7.5,7.5h65.006c4.142,0,7.5-3.357,7.5-7.5
			C476.343,393.414,472.986,390.057,468.842,390.057z"/>
	</g>
</g>
<g>
	<g>
		<path d="M368.181,198.95H91.211c-4.142,0-7.5,3.357-7.5,7.5s3.358,7.5,7.5,7.5h276.971c4.142,0,7.5-3.357,7.5-7.5
			S372.324,198.95,368.181,198.95z"/>
	</g>
</g>
<g>
	<g>
		<path d="M362.301,121.052H97.091c-7.378,0-13.381,6.003-13.381,13.382v28.44c0,7.378,6.002,13.382,13.381,13.382h265.21
			c7.378,0,13.381-6.003,13.381-13.382v-28.44C375.682,127.056,369.678,121.052,362.301,121.052z M360.681,161.254H98.711v-25.201
			h261.97V161.254z"/>
	</g>
</g>
<g>
	<g>
		<path d="M504.499,357.592c4.142,0,7.5-3.357,7.5-7.5v-98.262c0.001-9.265-7.536-16.802-16.802-16.802H466.82V34.052
			c0-13.105-10.662-23.765-23.765-23.765H23.765C10.662,10.287,0,20.947,0,34.052v290.071v61.435
			c0,12.962,10.541,23.766,23.765,23.766h155.421v40.607h-23.184c-11.683,0-21.186,9.504-21.186,21.186v9.409
			c0,11.683,9.504,21.186,21.186,21.186h59.907c4.142,0,7.5-3.357,7.5-7.5s-3.358-7.5-7.5-7.5h-59.907
			c-3.411,0-6.185-2.774-6.185-6.185v-9.409c0-3.41,2.774-6.185,6.185-6.185c24.15,0,136.563,0,150.539,0
			c3.411,0,6.185,2.774,6.185,6.185v9.409c0,3.41-2.774,6.185-6.185,6.185h-55.63c-4.142,0-7.5,3.357-7.5,7.5s3.358,7.5,7.5,7.5
			h55.63c11.683,0,21.186-9.504,21.186-21.186v-9.409c0-11.683-9.504-21.186-21.186-21.186h-23.184v-40.607h77.323
			c0,15.554,0,59.705,0,75.587c0,9.265,7.537,16.802,16.802,16.802h117.715c9.265,0,16.802-7.537,16.802-16.802v-99.818
			c0-4.143-3.358-7.5-7.5-7.5s-7.5,3.357-7.5,7.5v47.939H375.681c0-4.936,0-135.068,0-140.117h121.317v57.177
			C496.998,354.234,500.356,357.592,504.499,357.592z M375.682,448.032h121.317v36.877c0,0.993-0.808,1.801-1.801,1.801H377.483
			c-0.993,0-1.801-0.808-1.801-1.801V448.032z M15.001,34.052c0-4.832,3.932-8.765,8.765-8.765h419.29
			c4.833,0,8.765,3.932,8.765,8.765v200.975h-18.43c0-7.509,0-164.721,0-172.107c0-9.449-7.688-17.137-17.137-17.137
			c-4.355,0-358.591,0-365.685,0c-9.45,0-17.137,7.688-17.137,17.137c0,11.131,0,243.551,0,253.702h-18.43V34.052z M418.389,62.92
			v21.781H91.227V60.784h325.027C417.431,60.784,418.389,61.742,418.389,62.92z M76.226,60.784v23.917H48.432V62.92
			c0-1.178,0.958-2.136,2.136-2.136H76.226z M268.356,449.93h-74.169v-40.607h74.169V449.93z M360.681,394.321
			c-8.75,0.001-327.302,0.001-336.915,0.001c-4.882,0-8.765-4.027-8.765-8.766v-53.934c4.632,0,341.227,0,345.68,0V394.321z
			 M371.142,236.278c-0.909-0.391-1.909-0.61-2.962-0.61H91.211c-4.142,0-7.5,3.357-7.5,7.5s3.358,7.5,7.5,7.5h269.528
			c-0.026,0.385-0.059,0.768-0.059,1.159v20.558H91.211c-4.142,0-7.5,3.357-7.5,7.5s3.358,7.5,7.5,7.5h269.47v29.234H48.432V99.702
			c11.392,0,361.66,0,369.957,0v135.324h-40.906C375.24,235.027,373.102,235.477,371.142,236.278z M375.682,277.912v-26.084
			c0-0.993,0.808-1.801,1.801-1.801c10.805,0,106.209,0,117.715,0c0.993,0,1.801,0.808,1.801,1.801v26.084H375.682z"/>
	</g>
</g>

</svg>
